<svg xmlns="http://www.w3.org/2000/svg" viewBox="0 0 24522 201" width="24522" height="201"><path d="M0 101.145h402" fill="#000000" stroke="#9c00b6" stroke-width="3" stroke-dasharray="0,402" stroke-dashoffset="402"/><path d="M402 101.145h402" fill="#000000" stroke="#9c00b6" stroke-width="3" stroke-dasharray="1.2100256274081902,400.7899743725918" stroke-dashoffset="402"/><path d="M804 101.145h402" fill="#000000" stroke="#9c00b6" stroke-width="3" stroke-dasharray="5.242801548821452,396.7571984511785" stroke-dashoffset="402"/><path d="M1206 101.145h402" fill="#000000" stroke="#9c00b6" stroke-width="3" stroke-dasharray="12.859223324044622,389.1407766759554" stroke-dashoffset="402"/><path d="M1608 101.145h402" fill="#000000" stroke="#9c00b6" stroke-width="3" stroke-dasharray="25.075956431438243,376.9240435685618" stroke-dashoffset="402"/><path d="M2010 101.145h402" fill="#000000" stroke="#9c00b6" stroke-width="3" stroke-dasharray="43.17248213830258,358.8275178616974" stroke-dashoffset="402"/><path d="M2412 101.145h402" fill="#000000" stroke="#9c00b6" stroke-width="3" stroke-dasharray="68.45536227508067,333.5446377249193" stroke-dashoffset="402"/><path d="M2814 101.145h402" fill="#000000" stroke="#9c00b6" stroke-width="3" stroke-dasharray="101.3764752540721,300.6235247459279" stroke-dashoffset="402"/><path d="M3216 101.145h402" fill="#000000" stroke="#9c00b6" stroke-width="3" stroke-dasharray="140.01403839080527,261.9859616091947" stroke-dashoffset="402"/><path d="M3618 101.145h402" fill="#000000" stroke="#9c00b6" stroke-width="3" stroke-dasharray="179.93365318747598,222.06634681252402" stroke-dashoffset="402"/><path d="M4020 101.145h402" fill="#000000" stroke="#9c00b6" stroke-width="3" stroke-dasharray="216.91648021850492,185.08351978149508" stroke-dashoffset="402"/><path d="M4422 101.145h402" fill="#000000" stroke="#9c00b6" stroke-width="3" stroke-dasharray="249.04748568847612,152.95251431152388" stroke-dashoffset="402"/><path d="M4824 101.145h402" fill="#000000" stroke="#9c00b6" stroke-width="3" stroke-dasharray="276.2095686788421,125.79043132115785" stroke-dashoffset="402"/><path d="M5226 101.145h402" fill="#000000" stroke="#9c00b6" stroke-width="3" stroke-dasharray="298.98701821086456,103.01298178913544" stroke-dashoffset="402"/><path d="M5628 101.145h402" fill="#000000" stroke="#9c00b6" stroke-width="3" stroke-dasharray="318.0809053491939,83.91909465080607" stroke-dashoffset="402"/><path d="M6030 101.145h402" fill="#000000" stroke="#9c00b6" stroke-width="3" stroke-dasharray="334.1147580689783,67.88524193102171" stroke-dashoffset="402"/><path d="M6432 101.145h402" fill="#000000" stroke="#9c00b6" stroke-width="3" stroke-dasharray="347.5974580627084,54.402541937291545" stroke-dashoffset="402"/><path d="M6834 101.145h402" fill="#000000" stroke="#9c00b6" stroke-width="3" stroke-dasharray="358.9338640969301,43.0661359030699" stroke-dashoffset="402"/><path d="M7236 101.145h402" fill="#000000" stroke="#9c00b6" stroke-width="3" stroke-dasharray="368.4451191471155,33.5548808528845" stroke-dashoffset="402"/><path d="M7638 101.145h402" fill="#000000" stroke="#9c00b6" stroke-width="3" stroke-dasharray="376.3875284421638,25.612471557836233" stroke-dashoffset="402"/><path d="M8040 101.145h402" fill="#000000" stroke="#9c00b6" stroke-width="3" stroke-dasharray="382.96765117903993,19.03234882096009" stroke-dashoffset="402"/><path d="M8442 101.145h402" fill="#000000" stroke="#9c00b6" stroke-width="3" stroke-dasharray="388.3537800828955,13.646219917104478" stroke-dashoffset="402"/><path d="M8844 101.145h402" fill="#000000" stroke="#9c00b6" stroke-width="3" stroke-dasharray="392.68454060939155,9.315459390608456" stroke-dashoffset="402"/><path d="M9246 101.145h402" fill="#000000" stroke="#9c00b6" stroke-width="3" stroke-dasharray="396.07532672528674,5.92467327471324" stroke-dashoffset="402"/><path d="M9648 101.145h402" fill="#000000" stroke="#9c00b6" stroke-width="3" stroke-dasharray="398.6231449699735,3.3768550300264826" stroke-dashoffset="402"/><path d="M10050 101.145h402" fill="#000000" stroke="#9c00b6" stroke-width="3" stroke-dasharray="400.41029231834676,1.5897076816532603" stroke-dashoffset="402"/><path d="M10452 101.145h402" fill="#000000" stroke="#9c00b6" stroke-width="3" stroke-dasharray="401.5071765945062,0.4928234054937948" stroke-dashoffset="402"/><path d="M10854 101.145h402" fill="#000000" stroke="#9c00b6" stroke-width="3" stroke-dasharray="401.9745018440029,0.025498155997119465" stroke-dashoffset="402"/><path d="M11256.001 101.145c33.506.013 66.995.014 100.502 0 33.504-.014 66.992-.011 100.497 0 33.506.012 66.994.012 100.5 0 33.505-.016 66.993-.011 100.499 0M11658.006 101.145c33.541.083 66.971.09 100.512 0 33.529-.091 66.953-.069 100.482 0 33.535.075 66.962.074 100.497 0 33.535-.103 66.962-.073 100.497 0M12060.017 101.145c33.61.225 66.922.242 100.532 0 33.578-.245 66.873-.188 100.451 0 33.594.203 66.898.2 100.492 0 33.593-.279 66.897-.197 100.491 0M12462.034 101.145c33.722.455 66.843.49 100.565 0 33.658-.496 66.743-.379 100.401 0 33.69.411 66.793.403 100.483 0 33.69-.564 66.793-.399 100.483 0M12864.06 101.145c33.886.792 66.726.853 100.612 0 33.776-.865 66.553-.661 100.328 0 33.831.716 66.639.703 100.47 0 33.831-.984 66.64-.695 100.47 0M13266.095 101.145c34.116 1.263 66.563 1.36 100.68 0 33.939-1.379 66.286-1.054 100.225 0 34.028 1.141 66.425 1.12 100.452 0 34.028-1.569 66.426-1.108 100.453 0M13668.142 101.145c34.424 1.893 66.346 2.039 100.77 0 34.157-2.067 65.93-1.58 100.088 0 34.291 1.71 66.138 1.679 100.429 0 34.29-2.352 66.138-1.661 100.429 0M14070.203 101.145c34.818 2.7 66.067 2.908 100.884 0 34.439-2.948 65.475-2.254 99.913 0 34.628 2.44 65.77 2.395 100.398 0 34.628-3.355 65.771-2.369 100.399 0M14472.276 101.144c35.294 3.676 65.73 3.959 101.023 0 34.777-4.012 64.924-3.067 99.701 0 35.035 3.321 65.326 3.261 100.362 0 35.035-4.565 65.326-3.223 100.362 0M14874.358 101.144c35.823 4.761 65.355 5.127 101.177 0 35.154-5.196 64.311-3.973 99.465 0 35.489 4.302 64.832 4.223 100.321 0 35.488-5.913 64.833-4.175 100.321 0M15276.441 101.144c36.361 5.864 64.973 6.315 101.334 0 35.538-6.401 63.688-4.894 99.225 0 35.949 5.298 64.33 5.202 100.279 0 35.949-7.284 64.331-5.143 100.28 0M15678.519 101.144c36.868 6.903 64.614 7.433 101.482 0 35.898-7.535 63.101-5.761 98.999 0 36.383 6.237 63.857 6.123 100.24 0 36.383-8.575 63.858-6.055 100.241 0M16080.589 101.143c37.322 7.835 64.292 8.437 101.615 0 36.222-8.551 62.574-6.537 98.796 0 36.772 7.079 63.433 6.95 100.205 0 36.772-9.731 63.434-6.871 100.206 0M16482.651 101.143c37.719 8.649 64.01 9.314 101.73 0 36.505-9.44 62.114-7.217 98.619 0 37.112 7.814 63.062 7.672 100.175 0 37.112-10.742 63.063-7.585 100.174 0M16884.704 101.143c38.063 9.353 63.767 10.072 101.83 0 36.75-10.209 61.716-7.805 98.466 0 37.407 8.451 62.742 8.297 100.148 0 37.406-11.618 62.742-8.203 100.148 0M17286.749 101.143c38.36 9.961 63.557 10.727 101.917 0 36.961-10.873 61.373-8.312 98.334 0 37.661 9 62.465 8.836 100.125 0 37.66-12.373 62.466-8.737 100.126 0M17688.789 101.143c38.615 10.486 63.376 11.292 101.991 0 37.143-11.445 61.077-8.75 98.22 0 37.88 9.474 62.226 9.301 100.106 0 37.879-13.024 62.226-9.197 100.105 0M18090.823 101.143c38.837 10.939 63.219 11.78 102.056 0 37.3-11.941 60.82-9.129 98.121 0 38.069 9.883 62.019 9.703 100.089 0 38.068-13.588 62.02-9.595 100.088 0M18492.852 101.142c39.029 11.332 63.084 12.203 102.112 0 37.437-12.368 60.599-9.455 98.036 0 38.233 10.239 61.841 10.052 100.074 0 38.232-14.074 61.841-9.938 100.074 0M18894.878 101.142c39.194 11.672 62.966 12.569 102.16 0 37.555-12.738 60.407-9.739 97.962 0 38.375 10.545 61.686 10.353 100.061 0 38.374-14.496 61.687-10.236 100.061 0M19296.9 101.142c39.337 11.965 62.865 12.885 102.202 0 37.657-13.059 60.241-9.984 97.898 0 38.497 10.811 61.553 10.614 100.05 0 38.497-14.861 61.553-10.493 100.05 0M19698.919 101.142c39.461 12.219 62.777 13.158 102.238 0 37.745-13.336 60.098-10.195 97.843 0 38.603 11.04 61.437 10.838 100.04 0 38.603-15.176 61.439-10.716 100.041 0M20100.935 101.142c39.567 12.436 62.702 13.392 102.269 0 37.821-13.574 59.975-10.377 97.796 0 38.694 11.236 61.338 11.031 100.032 0 38.694-15.446 61.339-10.907 100.033 0M20502.949 101.142c39.658 12.623 62.638 13.593 102.296 0 37.885-13.777 59.87-10.533 97.755 0 38.772 11.405 61.253 11.197 100.025 0 38.771-15.678 61.254-11.07 100.026 0M20904.961 101.142c39.735 12.781 62.583 13.763 102.318 0 37.94-13.949 59.781-10.665 97.721 0 38.838 11.547 61.181 11.337 100.019 0 38.838-15.874 61.183-11.209 100.02 0M21306.971 101.142c39.8 12.913 62.537 13.906 102.337 0 37.986-14.094 59.706-10.775 97.692 0 38.893 11.667 61.121 11.454 100.014 0 38.893-16.039 61.122-11.325 100.015 0M21708.98 101.142c39.853 13.023 62.499 14.024 102.352 0 38.024-14.214 59.644-10.867 97.668 0 38.939 11.766 61.071 11.551 100.01 0 38.938-16.175 61.072-11.421 100.01 0M22110.986 101.142c39.896 13.111 62.469 14.119 102.365 0 38.055-14.31 59.594-10.941 97.649 0 38.976 11.846 61.031 11.63 100.007 0 38.975-16.285 61.032-11.499 100.007 0M22512.991 101.142c39.931 13.181 62.445 14.194 102.375 0 38.079-14.386 59.555-10.998 97.634 0 39.005 11.909 60.999 11.691 100.004 0 39.004-16.371 61-11.56 100.005 0M22914.995 101.142c39.956 13.232 62.427 14.249 102.382 0 38.098-14.443 59.526-11.042 97.623 0 39.027 11.955 60.976 11.737 100.002 0 39.026-16.435 60.977-11.605 100.003 0M23316.998 101.142c39.973 13.268 62.414 14.288 102.387 0 38.11-14.481 59.505-11.071 97.615 0 39.042 11.987 60.959 11.769 100.001 0 39.041-16.479 60.96-11.636 100.001 0M23719 101.142c39.982 13.288 62.407 14.31 102.39 0 38.116-14.504 59.493-11.088 97.61 0 39.05 12.006 60.95 11.787 100 0 39.049-16.505 60.951-11.654 100 0M24121 101.142c39.986 13.295 62.405 14.317 102.391 0 38.119-14.511 59.49-11.094 97.609 0 39.053 12.012 60.947 11.793 100 0 39.052-16.513 60.948-11.66 100 0" fill="#000000" stroke="#9c00b6" stroke-width="3"/></svg>