<svg xmlns="http://www.w3.org/2000/svg" viewBox="0 0 10000 24" width="10000" height="24"><path d="M0 0h400v24H0z" fill="#00000000"/><path d="M0 24V2.191c37.661 1.535 60.266.13 102 0 37.828-.567 59.363.343 98 0 39.901.095 61.709.486 100 0 37.402.012 59.361-.287 100 0V24H0z" fill="#333333"/><path d="M0 2h400" fill="#00000000" stroke="#882cc0" stroke-width="3" stroke-dasharray="0,400" stroke-dashoffset="400"/><path d="M400 0h400v24H400z" fill="#00000000"/><path d="M400 24V2.191c37.661 1.535 60.266.13 102 0 37.828-.567 59.363.343 98 0 39.901.095 61.709.486 100 0 37.402.012 59.361-.287 100 0V24H400z" fill="#333333"/><path d="M400 2h400" fill="#00000000" stroke="#882cc0" stroke-width="3" stroke-dasharray="7.0225932578592385,392.9774067421408" stroke-dashoffset="400"/><path d="M800 0h400v24H800z" fill="#00000000"/><path d="M800 24V2.191c37.661 1.535 60.266.13 102 0 37.828-.567 59.363.343 98 0 39.901.095 61.709.486 100 0 37.402.012 59.361-.287 100 0V24H800z" fill="#333333"/><path d="M800 2h400" fill="#00000000" stroke="#882cc0" stroke-width="3" stroke-dasharray="34.67454843548379,365.3254515645162" stroke-dashoffset="400"/><path d="M1200 0h400v24h-400z" fill="#00000000"/><path d="M1200 24V2.191c37.661 1.535 60.266.13 102 0 37.828-.567 59.363.343 98 0 39.901.095 61.709.486 100 0 37.402.012 59.361-.287 100 0V24h-400z" fill="#333333"/><path d="M1200 2h400" fill="#00000000" stroke="#882cc0" stroke-width="3" stroke-dasharray="96.45311727035578,303.5468827296442" stroke-dashoffset="400"/><path d="M1600 0h400v24h-400z" fill="#00000000"/><path d="M1600 24V2.191c37.661 1.535 60.266.13 102 0 37.828-.567 59.363.343 98 0 39.901.095 61.709.486 100 0 37.402.012 59.361-.287 100 0V24h-400z" fill="#333333"/><path d="M1600 2h400" fill="#00000000" stroke="#882cc0" stroke-width="3" stroke-dasharray="185.53673512332625,214.46326487667378" stroke-dashoffset="400"/><path d="M2000 0h400v24h-400z" fill="#00000000"/><path d="M2000 24V2.191c37.661 1.535 60.266.13 102 0 37.828-.567 59.363.343 98 0 39.901.095 61.709.486 100 0 37.402.012 59.361-.287 100 0V24h-400z" fill="#333333"/><path d="M2000 2h400" fill="#00000000" stroke="#882cc0" stroke-width="3" stroke-dasharray="260.8527477550803,139.1472522449197" stroke-dashoffset="400"/><path d="M2400 0h400v24h-400z" fill="#00000000"/><path d="M2400 24V2.191c37.661 1.535 60.266.13 102 0 37.828-.567 59.363.343 98 0 39.901.095 61.709.486 100 0 37.402.012 59.361-.287 100 0V24h-400z" fill="#333333"/><path d="M2400 2h400" fill="#00000000" stroke="#882cc0" stroke-width="3" stroke-dasharray="312.1136031340702,87.88639686592975" stroke-dashoffset="400"/><path d="M2800 0h400v24h-400z" fill="#00000000"/><path d="M2800 24V2.191c37.661 1.535 60.266.13 102 0 37.828-.567 59.363.343 98 0 39.901.095 61.709.486 100 0 37.402.012 59.361-.287 100 0V24h-400z" fill="#333333"/><path d="M2800 2h400" fill="#00000000" stroke="#882cc0" stroke-width="3" stroke-dasharray="346.42308700136215,53.57691299863782" stroke-dashoffset="400"/><path d="M3200 0h400v24h-400z" fill="#00000000"/><path d="M3200 24V2.191c37.661 1.535 60.266.13 102 0 37.828-.567 59.363.343 98 0 39.901.095 61.709.486 100 0 37.402.012 59.361-.287 100 0V24h-400z" fill="#333333"/><path d="M3200 2h400" fill="#00000000" stroke="#882cc0" stroke-width="3" stroke-dasharray="369.4429163975857,30.557083602414316" stroke-dashoffset="400"/><g><path d="M3600 0h400v24h-400z" fill="#00000000"/><path d="M3600 24V2.191c37.661 1.535 60.266.13 102 0 37.828-.567 59.363.343 98 0 39.901.095 61.709.486 100 0 37.402.012 59.361-.287 100 0V24h-400z" fill="#333333"/><path d="M3600 2h400" fill="#00000000" stroke="#882cc0" stroke-width="3" stroke-dasharray="384.5664489923174,15.433551007682578" stroke-dashoffset="400"/></g><g><path d="M4000 0h400v24h-400z" fill="#00000000"/><path d="M4000 24V2.191c37.661 1.535 60.266.13 102 0 37.828-.567 59.363.343 98 0 39.901.095 61.709.486 100 0 37.402.012 59.361-.287 100 0V24h-400z" fill="#333333"/><path d="M4000 2h400" fill="#00000000" stroke="#882cc0" stroke-width="3" stroke-dasharray="393.8726885472297,6.127311452770323" stroke-dashoffset="400"/></g><g><path d="M4400 0h400v24h-400z" fill="#00000000"/><path d="M4400 24V2.191c37.661 1.535 60.266.13 102 0 37.828-.567 59.363.343 98 0 39.901.095 61.709.486 100 0 37.402.012 59.361-.287 100 0V24h-400z" fill="#333333"/><path d="M4400 2h400" fill="#00000000" stroke="#882cc0" stroke-width="3" stroke-dasharray="398.70747601517917,1.292523984820848" stroke-dashoffset="400"/></g><g><path d="M4800 0h400v24h-400z" fill="#00000000"/><path d="M4800 24V2.192c37.661 1.536 60.266.131 102 0 37.828-.568 59.363.342 98 0 39.901.097 61.709.487 100 0 37.402.011 59.361-.288 100 0V24h-400z" fill="#333333"/><path d="M4800 2.001c33.334.002 66.666.001 100 0s66.666-.001 100 0 66.666.001 100 0 66.666-.001 100 0" fill="#00000000" stroke="#882cc0" stroke-width="3"/></g><g><path d="M5200 0h400v24h-400z" fill="#00000000"/><path d="M5200 24V2.391c37.661 1.764 60.266.356 102 0 37.836-.802 59.371.108 98 0 39.909.348 61.718.723 100 0 37.402-.221 59.361-.504 100 0V24h-400z" fill="#333333"/><path d="M5200 2.2c33.374.269 66.505.211 100.049 0 33.42-.253 66.513-.212 99.951 0 33.367.211 66.469.236 100 0 33.448-.228 66.53-.217 100 0" fill="#00000000" stroke="#882cc0" stroke-width="3"/></g><g><path d="M5600 0h400v24h-400z" fill="#00000000"/><path d="M5600 24V3.098c37.661 2.572 60.266 1.154 102 0 37.866-1.632 59.399-.721 98 0 39.937 1.24 61.748 1.562 100 0 37.403-1.046 59.362-1.271 100 0V24h-400z" fill="#333333"/><path d="M5600 2.908c33.519 1.217 65.932.956 100.223 0 33.725-1.149 65.968-.964 99.777 0 33.484.955 65.77 1.069 100 0 33.855-1.035 66.049-.985 100 0" fill="#00000000" stroke="#882cc0" stroke-width="3"/></g><g><path d="M6000 0h400v24h-400z" fill="#00000000"/><path d="M6000 24V4.629c37.662 4.321 60.267 2.882 102 0 37.931-3.428 59.461-2.516 98 0 39.999 3.172 61.814 3.376 100 0 37.404-2.831 59.364-2.932 100 0V24h-400z" fill="#333333"/><path d="M6000 4.439c33.832 3.27 64.694 2.571 100.598 0 34.388-3.088 64.791-2.59 99.402 0 33.738 2.566 64.257 2.875 100 0 34.736-2.779 65.007-2.645 100 0" fill="#00000000" stroke="#882cc0" stroke-width="3"/></g><g><path d="M6400 0h400v24h-400z" fill="#00000000"/><path d="M6400 24V6.774c37.662 6.772 60.267 5.303 102 0 38.021-5.946 59.547-5.032 98 0 40.085 5.878 61.906 5.918 100 0 37.406-5.332 59.367-5.258 100 0V24h-400z" fill="#333333"/><path d="M6400 6.584c34.271 6.148 62.958 4.833 101.124 0 35.316-5.804 63.14-4.868 98.876 0 34.094 4.824 62.137 5.404 100 0 35.969-5.223 63.548-4.971 100 0" fill="#00000000" stroke="#882cc0" stroke-width="3"/></g><g><path d="M6800 0h400v24h-400z" fill="#00000000"/><path d="M6800 24V8.568c37.662 8.823 60.267 7.33 102 0 38.097-8.052 59.62-7.137 98 0 40.157 8.144 61.983 8.046 100 0 37.408-7.424 59.369-7.204 100 0V24h-400z" fill="#333333"/><path d="M6800 8.38c34.639 8.555 61.505 6.724 101.565 0 36.092-8.077 61.758-6.775 98.435 0 34.392 6.713 60.364 7.52 100 0 37.001-7.269 62.326-6.919 100 0" fill="#00000000" stroke="#882cc0" stroke-width="3"/></g><g><path d="M7200 0h400v24h-400z" fill="#00000000"/><path d="M7200 24V9.795c37.663 10.225 60.268 8.715 102 0 38.149-9.492 59.669-8.576 98 0 40.206 9.692 62.036 9.5 100 0 37.409-8.855 59.37-8.535 100 0V24h-400z" fill="#333333"/><path d="M7200 9.607c34.89 10.201 60.513 8.018 101.865 0 36.624-9.631 60.815-8.077 98.135 0 34.595 8.004 59.151 8.967 100 0 37.707-8.667 61.491-8.249 100 0" fill="#00000000" stroke="#882cc0" stroke-width="3"/></g><g><path d="M7600 0h400v24h-400z" fill="#00000000"/><path d="M7600 24V10.621c37.663 11.169 60.268 9.647 102 0 38.184-10.461 59.702-9.544 98 0 40.239 10.735 62.071 10.479 100 0 37.41-9.818 59.371-9.431 100 0V24h-400z" fill="#333333"/><path d="M7600 10.433c35.059 11.309 59.844 8.89 102.068 0 36.981-10.677 60.179-8.955 97.932 0 34.733 8.874 58.335 9.942 100 0 38.182-9.608 60.929-9.145 100 0" fill="#00000000" stroke="#882cc0" stroke-width="3"/></g><g><path d="M8000 0h400v24h-400z" fill="#00000000"/><path d="M8000 24V11.179c37.663 11.806 60.268 10.276 102 0 38.207-11.116 59.724-10.199 98 0 40.262 11.438 62.095 11.139 100 0 37.41-10.469 59.372-10.037 100 0V24h-400z" fill="#333333"/><path d="M8000 10.991c35.173 12.057 59.393 9.477 102.205 0 37.222-11.383 59.75-9.547 97.795 0 34.825 9.461 57.784 10.599 100 0 38.503-10.244 60.549-9.75 100 0" fill="#00000000" stroke="#882cc0" stroke-width="3"/></g><g><path d="M8400 0h400v24h-400z" fill="#00000000"/><path d="M8400 24V11.548c37.663 12.228 60.268 10.693 102 0 38.223-11.549 59.739-10.632 98 0 40.276 11.904 62.111 11.577 100 0 37.411-10.899 59.373-10.437 100 0V24h-400z" fill="#333333"/><path d="M8400 11.36c35.248 12.552 59.094 9.867 102.295 0 37.382-11.85 59.466-9.939 97.705 0 34.886 9.85 57.419 11.034 100 0 38.715-10.665 60.298-10.15 100 0" fill="#00000000" stroke="#882cc0" stroke-width="3"/></g><g><path d="M8800 0h400v24h-400z" fill="#00000000"/><path d="M8800 24V11.777c37.663 12.491 60.268 10.953 102 0 38.232-11.818 59.749-10.9 98 0 40.286 12.195 62.121 11.85 100 0 37.411-11.166 59.373-10.685 100 0V24h-400z" fill="#333333"/><path d="M8800 11.59c35.295 12.86 58.908 10.109 102.352 0 37.481-12.142 59.289-10.183 97.648 0 34.925 10.091 57.192 11.305 100 0 38.847-10.927 60.142-10.4 100 0" fill="#00000000" stroke="#882cc0" stroke-width="3"/></g><g><path d="M9200 0h400v24h-400z" fill="#00000000"/><path d="M9200 24V11.9c37.663 12.631 60.268 11.091 102 0 38.237-11.963 59.754-11.045 98 0 40.291 12.349 62.126 11.995 100 0 37.411-11.31 59.373-10.819 100 0V24h-400z" fill="#333333"/><path d="M9200 11.713c35.32 13.024 58.809 10.238 102.382 0 37.534-12.297 59.194-10.314 97.618 0 34.945 10.22 57.071 11.449 100 0 38.918-11.067 60.058-10.533 100 0" fill="#00000000" stroke="#882cc0" stroke-width="3"/></g><g><path d="M9600 0h400v24h-400z" fill="#00000000"/><path d="M9600 24V11.937c37.663 12.673 60.268 11.133 102 0 38.239-12.006 59.755-11.088 98 0 40.292 12.396 62.128 12.039 100 0 37.411-11.353 59.373-10.859 100 0V24h-400z" fill="#333333"/><path d="M9600 11.75c35.328 13.074 58.779 10.277 102.391 0 37.55-12.344 59.166-10.353 97.609 0 34.951 10.259 57.034 11.493 100 0 38.939-11.109 60.033-10.573 100 0" fill="#00000000" stroke="#882cc0" stroke-width="3"/></g></svg>